HIERARCHY
ROOT Hips
{
	OFFSET -0.001795 -0.223333 0.028219
	CHANNELS 6 Xposition Yposition Zposition Zrotation Yrotation Xrotation 
	JOINT LeftUpLeg
	{
		OFFSET 0.069520 -0.091406 -0.006815
		CHANNELS 3 Zrotation Yrotation Xrotation
		JOINT LeftLeg
		{
			OFFSET 0.034277 -0.375199 -0.004496
			CHANNELS 3 Zrotation Yrotation Xrotation
			JOINT LeftFoot
			{
				OFFSET -0.013596 -0.397961 -0.043693
				CHANNELS 3 Zrotation Yrotation Xrotation
				JOINT LeftToe
				{
					OFFSET 0.026358 -0.055791 0.119288
					CHANNELS 3 Zrotation Yrotation Xrotation
					End Site
					{
						OFFSET 0.000000 0.000000 0.000000
					}
				}
			}
		}
	}
	JOINT RightUpLeg
	{
		OFFSET -0.067670 -0.090522 -0.004320
		CHANNELS 3 Zrotation Yrotation Xrotation
		JOINT RightLeg
		{
			OFFSET -0.038290 -0.382569 -0.008850
			CHANNELS 3 Zrotation Yrotation Xrotation
			JOINT RightFoot
			{
				OFFSET 0.015774 -0.398415 -0.042312
				CHANNELS 3 Zrotation Yrotation Xrotation
				JOINT RightToe
				{
					OFFSET -0.025372 -0.048144 0.123348
					CHANNELS 3 Zrotation Yrotation Xrotation
					End Site
					{
						OFFSET 0.000000 0.000000 0.000000
					}
				}
			}
		}
	}
	JOINT Spine
	{
		OFFSET -0.002533 0.108963 -0.026696
		CHANNELS 3 Zrotation Yrotation Xrotation
		JOINT Spine1
		{
			OFFSET 0.005487 0.135180 0.001092
			CHANNELS 3 Zrotation Yrotation Xrotation
			JOINT Spine2
			{
				OFFSET 0.001457 0.052922 0.025425
				CHANNELS 3 Zrotation Yrotation Xrotation
				JOINT Neck
				{
					OFFSET -0.002778 0.213870 -0.042857
					CHANNELS 3 Zrotation Yrotation Xrotation
					JOINT Head
					{
						OFFSET 0.005152 0.064970 0.051349
						CHANNELS 3 Zrotation Yrotation Xrotation
						End Site
						{
							OFFSET 0.000000 0.000000 0.000000
						}
					}
				}
				JOINT LeftShoulder
				{
					OFFSET 0.078845 0.121749 -0.034090
					CHANNELS 3 Zrotation Yrotation Xrotation
					JOINT LeftArm
					{
						OFFSET 0.090977 0.030469 -0.008868
						CHANNELS 3 Zrotation Yrotation Xrotation
						JOINT LeftForeArm
						{
							OFFSET 0.259612 -0.012772 -0.027456
							CHANNELS 3 Zrotation Yrotation Xrotation
							JOINT LeftHand
							{
								OFFSET 0.249234 0.008986 -0.001171
								CHANNELS 3 Zrotation Yrotation Xrotation
								End Site
								{
									OFFSET 0.000000 0.000000 0.000000
								}
							}
						}
					}
				}
				JOINT RightShoulder
				{
					OFFSET -0.081759 0.118833 -0.038615
					CHANNELS 3 Zrotation Yrotation Xrotation
					JOINT RightArm
					{
						OFFSET -0.096012 0.032551 -0.009143
						CHANNELS 3 Zrotation Yrotation Xrotation
						JOINT RightForeArm
						{
							OFFSET -0.253742 -0.013329 -0.021401
							CHANNELS 3 Zrotation Yrotation Xrotation
							JOINT RightHand
							{
								OFFSET -0.255298 0.007772 -0.005559
								CHANNELS 3 Zrotation Yrotation Xrotation
								End Site
								{
									OFFSET 0.000000 0.000000 0.000000
								}
							}
						}
					}
				}
			}
		}
	}
}
MOTION
Frames: 17
Frame Time: 0.050000
-2.845285 0.932356 0.943745 178.224259 -10.934537 175.007671 4.493233 16.613155 20.611554 13.373050 25.019525 25.644176 -53.092776 13.640269 7.746210 0.000000 0.000000 0.000000 3.082920 3.715716 -16.197059 7.067431 10.780645 3.795937 -109.810360 73.382120 8.242190 0.000000 0.000000 0.000000 6.896630 1.345888 14.408747 -6.436943 -0.503073 -29.246799 -5.591746 -1.268916 34.664501 26.406833 35.641592 -23.787209 0.000000 0.000000 0.000000 0.390237 23.678325 94.642155 73.438656 -70.999610 -46.449220 30.245548 9.007645 1.152473 0.000000 0.000000 0.000000 -12.156324 -27.861200 175.271981 -101.458696 13.830493 4.688612 3.546245 -31.902117 -6.829014 0.000000 0.000000 0.000000 
-2.848339 0.936722 0.897738 178.844939 -7.673335 174.557496 4.670412 13.511000 14.251976 41.463004 36.443857 51.899743 -61.111129 17.878343 28.305443 0.000000 0.000000 0.000000 5.280470 2.379346 -13.421213 7.050292 11.296368 5.320745 -118.755090 68.446523 -1.961902 0.000000 0.000000 0.000000 7.351523 1.302047 14.084485 -6.170803 -0.284009 -28.294316 -3.601130 -0.525424 32.568927 26.360862 36.679409 -22.665098 0.000000 0.000000 0.000000 2.688857 23.248368 105.897406 85.238163 -64.895714 -51.882814 28.598280 11.856266 1.046162 0.000000 0.000000 0.000000 -14.677087 -29.555785 170.714506 -102.502866 19.153566 -6.246494 -3.776756 -31.958347 -4.658889 0.000000 0.000000 0.000000 
-2.849205 0.939538 0.856406 179.140096 -4.507665 173.394723 5.802937 12.578204 8.514587 75.427848 34.826946 77.652851 -64.891180 27.789623 45.413897 0.000000 0.000000 0.000000 6.981716 1.306495 -9.570373 6.833362 11.527791 6.706851 -134.294713 65.577247 -15.361937 0.000000 0.000000 0.000000 7.290086 1.582077 14.736853 -4.980862 -0.082854 -28.246425 -3.636577 -0.224770 33.519342 32.525136 44.073769 -19.728211 0.000000 0.000000 0.000000 7.666927 23.290666 124.025237 94.126204 -50.837513 -44.101281 26.686517 18.948153 1.680215 0.000000 0.000000 0.000000 -9.301047 -34.060156 147.741351 -99.026344 36.253029 -24.487786 -18.012874 -27.638478 -0.363422 0.000000 0.000000 0.000000 
-2.848464 0.943310 0.819004 179.159551 0.797816 172.649285 3.170691 -9.934127 5.738595 -66.151886 -29.446652 51.462254 36.209151 -18.404145 75.090789 0.000000 0.000000 0.000000 8.181898 -2.754223 -5.967629 -0.719802 -15.335448 7.995165 62.945282 -20.851989 -13.456610 0.000000 0.000000 0.000000 5.488596 -4.034006 15.342520 -4.366527 -1.586613 -28.465299 0.818798 9.076105 33.259089 18.086803 -19.141011 -28.988990 0.000000 0.000000 0.000000 12.362612 20.027724 142.856608 95.706436 -36.243536 -23.264375 18.892664 30.256533 -1.000278 0.000000 0.000000 0.000000 -3.554247 -37.291101 128.930466 -95.493581 48.503410 -42.812316 -28.710391 -16.848729 2.528316 0.000000 0.000000 0.000000 
-2.846757 0.947759 0.784786 178.519657 6.289033 171.906624 3.982268 -6.777472 0.129236 -64.949272 -27.710632 55.484356 41.128691 -20.096127 75.344621 0.000000 0.000000 0.000000 7.858724 -2.329658 -2.332750 -0.318066 -14.327979 7.500803 60.217442 -18.309379 -12.028724 0.000000 0.000000 0.000000 4.729874 -3.821563 15.584222 -3.850923 -1.171782 -27.663292 0.807948 11.370553 32.648199 19.495866 -19.197777 -27.256001 0.000000 0.000000 0.000000 18.750310 12.551055 173.315231 97.144009 -9.738801 6.435862 -1.179652 38.665810 -7.623105 0.000000 0.000000 0.000000 4.836504 -38.413747 103.709523 -84.937131 65.186815 -54.093710 -34.558121 -2.692837 -0.016621 0.000000 0.000000 0.000000 
-2.844292 0.951219 0.753059 178.180693 11.148444 171.688345 3.640726 -4.882137 -3.796638 -46.164926 -25.432219 50.560192 49.005837 -23.015476 62.451326 0.000000 0.000000 0.000000 7.312912 -2.648694 1.303608 -0.276291 -11.935445 5.878395 62.148188 -16.739586 -10.155265 0.000000 0.000000 0.000000 4.493444 -3.805403 15.803458 -4.041328 -0.968683 -28.258054 1.509556 12.675019 33.453004 20.011142 -14.028503 -28.539329 0.000000 0.000000 0.000000 19.714480 3.301026 -159.909270 94.929669 16.884653 33.230790 -23.296091 34.511708 -15.056458 0.000000 0.000000 0.000000 11.067748 -37.434633 84.667399 -61.998213 76.173662 -45.521845 -35.820647 8.613926 -2.796653 0.000000 0.000000 0.000000 
-2.841586 0.953521 0.722667 177.734664 15.682264 171.833012 3.287262 -3.850622 -7.549435 -26.809830 -22.164642 42.395930 51.841576 -21.162299 46.716116 0.000000 0.000000 0.000000 6.771739 -3.069516 3.534051 -0.752259 -10.424720 5.649221 61.541693 -14.468069 -8.054392 0.000000 0.000000 0.000000 4.203278 -3.405642 15.362598 -3.966438 -0.751053 -27.719641 1.057982 13.473385 32.856926 20.469698 -11.732595 -27.879893 0.000000 0.000000 0.000000 17.198029 -5.068020 -132.740114 87.957596 45.304115 52.297424 -35.083385 21.948975 -14.618502 0.000000 0.000000 0.000000 15.911688 -35.406114 67.992283 0.923142 79.695219 4.348925 -35.574780 20.045919 -5.598188 0.000000 0.000000 0.000000 
-2.838468 0.954265 0.692676 177.504076 20.657613 171.679985 2.970217 -3.310112 -9.387273 -10.762602 -15.904807 31.173308 48.961053 -18.490299 32.705206 0.000000 0.000000 0.000000 6.380658 -3.796412 6.495063 -1.578278 -8.285867 4.821233 62.405366 -12.148181 -5.679871 0.000000 0.000000 0.000000 4.010474 -3.530533 15.790384 -4.066484 -0.522768 -28.769629 1.648192 14.683299 33.875840 20.321629 -8.450909 -28.220681 0.000000 0.000000 0.000000 12.385826 -9.936267 -111.874542 70.936622 65.501404 53.336912 -37.985185 10.224173 -10.601725 0.000000 0.000000 0.000000 19.302236 -33.535121 56.177169 35.748499 74.986675 29.995286 -34.002974 27.532792 -6.768129 0.000000 0.000000 0.000000 
-2.835080 0.952784 0.662800 176.794547 25.154633 171.800322 2.461131 -2.923422 -10.884527 -1.861134 -9.297593 20.978618 36.350214 -14.677303 22.221101 0.000000 0.000000 0.000000 5.708279 -4.252393 7.877749 -2.964399 -6.773486 5.056148 63.404901 -9.307769 -3.661085 0.000000 0.000000 0.000000 3.678556 -3.161250 15.360208 -4.164129 -0.373057 -28.697192 1.551111 14.904102 33.910846 19.873369 -5.460608 -28.516649 0.000000 0.000000 0.000000 6.973163 -12.419585 -94.339945 18.763774 74.719664 15.558367 -37.129286 0.368806 -6.610404 0.000000 0.000000 0.000000 21.569507 -30.729156 49.125241 45.022346 69.502391 31.833705 -31.916718 32.876563 -7.398877 0.000000 0.000000 0.000000 
-2.831100 0.950096 0.632400 176.559220 29.913219 171.339422 2.867561 -2.905418 -11.781454 -0.043189 -5.506780 13.902255 25.179389 -12.039396 16.946404 0.000000 0.000000 0.000000 4.585056 -5.188044 10.049572 -3.817892 -5.347435 4.693250 62.449007 -6.466595 -0.518254 0.000000 0.000000 0.000000 3.567578 -3.320190 15.808621 -3.770618 0.000647 -28.881814 1.864052 16.399935 33.635200 19.222932 -3.499776 -28.349610 0.000000 0.000000 0.000000 2.954790 -13.738085 -80.581973 -23.496310 68.211118 -16.864517 -35.352408 -5.403880 -4.273776 0.000000 0.000000 0.000000 22.537687 -29.272184 41.110959 54.955247 62.686090 35.074627 -27.434803 37.065244 -6.600549 0.000000 0.000000 0.000000 
-2.825724 0.946908 0.601275 176.113516 33.142994 170.931233 2.317572 -2.682495 -12.491027 0.959038 -3.408317 7.614753 15.644465 -10.991742 17.104583 0.000000 0.000000 0.000000 3.098720 -6.154343 11.615810 -4.798012 -4.648953 5.121601 63.823544 -3.604948 1.125804 0.000000 0.000000 0.000000 2.781480 -3.251024 15.983300 -3.023950 0.450028 -28.498819 1.466649 15.824548 32.860836 18.916856 -0.476522 -29.704470 0.000000 0.000000 0.000000 -0.060313 -14.169098 -69.657633 -39.762856 59.019689 -25.523140 -31.759202 -11.117544 -2.591199 0.000000 0.000000 0.000000 22.695799 -27.099048 36.567966 58.145489 58.383894 33.889875 -23.598355 37.802437 -5.601735 0.000000 0.000000 0.000000 
-2.818366 0.942805 0.568508 176.726978 36.399132 171.050130 2.215580 -2.606543 -12.890528 1.494805 -2.599108 2.375336 12.862933 -10.293162 16.296020 0.000000 0.000000 0.000000 2.133915 -7.023447 13.356709 -5.539642 -4.595060 6.313590 64.659139 -0.788153 3.567616 0.000000 0.000000 0.000000 2.788212 -3.352317 16.248549 -2.276172 0.816911 -28.596632 1.171209 15.888821 32.423863 18.327574 0.714555 -29.644186 0.000000 0.000000 0.000000 -2.564854 -14.103940 -62.867572 -44.948756 51.419798 -25.182083 -30.151916 -14.194615 -1.718963 0.000000 0.000000 0.000000 24.220262 -26.647203 32.596326 59.380802 54.621764 30.753246 -19.117089 38.215825 -4.368304 0.000000 0.000000 0.000000 
-2.809323 0.938467 0.534235 177.230213 38.815682 171.639916 1.479544 -2.270738 -12.557028 2.502162 -2.546345 -2.497184 12.216098 -9.534243 16.092778 0.000000 0.000000 0.000000 1.842536 -7.047449 13.650850 -7.657342 -5.377905 9.506874 65.771323 3.212963 3.927679 0.000000 0.000000 0.000000 2.425124 -2.998762 15.815819 -1.914247 0.943626 -29.313984 2.054615 15.090202 32.857144 18.967456 0.644676 -28.782371 0.000000 0.000000 0.000000 -4.795619 -15.897634 -59.226778 -44.793669 47.214043 -21.690221 -26.759083 -15.533872 -1.227909 0.000000 0.000000 0.000000 24.644752 -26.053675 30.566469 58.956546 51.498887 27.843259 -15.304899 37.164681 -3.397205 0.000000 0.000000 0.000000 
-2.798521 0.933686 0.498496 177.342820 41.454539 171.317405 1.611501 -2.362179 -13.149201 1.774204 -2.296818 0.433773 8.345900 -7.878925 16.428626 0.000000 0.000000 0.000000 -0.120118 -8.582821 15.981656 -8.601117 -4.934895 9.963444 65.978184 4.520745 7.005325 0.000000 0.000000 0.000000 3.302810 -2.671968 14.709441 -2.176263 1.092544 -27.557398 -0.132818 13.772190 32.307978 19.456995 -0.309841 -26.586356 0.000000 0.000000 0.000000 -6.475925 -15.172993 -52.887555 -46.804162 39.580259 -19.577124 -22.746183 -17.062593 -1.160803 0.000000 0.000000 0.000000 26.597349 -24.615649 29.561646 58.207961 51.044622 24.502102 -12.487209 33.700779 -2.805542 0.000000 0.000000 0.000000 
-2.787006 0.930290 0.461776 175.573139 45.589847 169.861592 -0.013466 -1.740483 -12.481549 1.333181 -2.205159 2.887116 4.316260 -4.416019 18.158198 0.000000 0.000000 0.000000 -3.862417 -9.707827 16.861118 -10.472287 -4.271156 10.891779 66.841027 5.544417 12.766337 0.000000 0.000000 0.000000 1.761802 -2.220074 14.390587 -2.565448 0.843564 -29.457944 0.731378 14.444537 34.108130 18.952702 -1.375143 -24.484310 0.000000 0.000000 0.000000 -6.840929 -15.867374 -48.165648 -46.986489 36.038112 -18.422518 -21.141376 -18.322072 -1.204354 0.000000 0.000000 0.000000 27.170084 -24.308821 27.940334 59.812970 47.725768 22.564254 -9.741021 30.721523 -2.259167 0.000000 0.000000 0.000000 
-2.774980 0.931349 0.424810 175.253570 49.421537 170.497356 -0.610546 -1.576649 -12.548725 1.247597 -2.201386 5.559807 0.828656 -1.918813 18.984276 0.000000 0.000000 0.000000 -5.520438 -9.122634 15.223856 -12.135108 -5.162233 14.075633 63.825854 8.128060 16.427812 0.000000 0.000000 0.000000 1.387917 -1.657477 12.899078 -1.830501 1.318883 -27.918372 -0.941378 13.343713 32.712536 17.795850 -0.222826 -23.894286 0.000000 0.000000 0.000000 -8.582002 -15.242522 -42.045113 -47.229423 30.072813 -15.851609 -19.013071 -19.029444 -1.110011 0.000000 0.000000 0.000000 28.783597 -22.183228 27.044846 56.680740 44.147256 16.055491 -7.696934 28.634451 -1.840353 0.000000 0.000000 0.000000 
-2.762976 0.936792 0.388214 174.398614 52.703372 170.170783 -1.336602 -1.057305 -10.767981 0.106438 -2.391682 6.424789 3.235522 -0.157471 17.656338 0.000000 0.000000 0.000000 -7.103847 -8.611077 12.924455 -15.024173 -7.054167 19.012006 61.638046 10.270330 20.796379 0.000000 0.000000 0.000000 1.558171 -1.429290 12.143254 -2.180553 1.281620 -28.048038 -1.348531 13.699990 32.812987 18.296781 0.520344 -24.359471 0.000000 0.000000 0.000000 -8.913239 -14.260491 -39.091236 -48.184262 26.566542 -15.039293 -18.062278 -19.744583 -1.148150 0.000000 0.000000 0.000000 28.619257 -22.505325 23.607325 58.057238 39.815003 14.877805 -6.740049 25.726324 -1.438953 0.000000 0.000000 0.000000 
